<svg width="411" height="316" viewBox="0 0 411 316" fill="none" xmlns="http://www.w3.org/2000/svg">
<g clip-path="url(#clip0_1306_938)">
<path d="M304.828 68.7067C303.411 68.155 301.785 67.7235 300.124 67.4295C298.462 67.1351 296.785 66.9723 295.266 67.0039C293.747 67.0354 292.403 67.1118 291.083 68.0383C289.763 68.9652 289.242 70.201 288.693 71.6225C288.143 73.0435 287.724 74.6786 287.431 76.3452C287.137 78.0121 286.972 79.7063 287.004 81.2306C287.035 82.7549 287.104 84.0892 288.027 85.4137C288.951 86.7379 290.179 87.271 291.596 87.8228C293.012 88.3745 294.653 88.7981 296.314 89.0921C297.975 89.3865 299.652 89.5492 301.172 89.5177C302.691 89.4862 304.032 89.4208 305.352 88.4939C306.671 87.5674 307.195 86.3205 307.745 84.8991C308.294 83.4776 308.713 81.843 309.007 80.1764C309.3 78.5095 309.462 76.8263 309.431 75.3016C309.399 73.7777 309.334 72.4319 308.41 71.1078C307.487 69.7837 306.244 69.258 304.828 68.7067ZM303.33 72.5868C304.401 73.0037 305.085 73.6201 305.001 73.5007C304.917 73.3809 305.251 74.2376 305.275 75.3903C305.299 76.5434 305.167 78.005 304.914 79.4462C304.66 80.8873 304.282 82.3178 303.867 83.3929C303.451 84.4683 302.847 85.1568 302.967 85.0733C303.086 84.9893 302.233 85.3247 301.083 85.3483C299.934 85.372 298.467 85.2372 297.03 84.9826C295.594 84.728 294.179 84.3521 293.108 83.9348C292.036 83.5178 291.35 82.9121 291.433 83.0319C291.517 83.1517 291.183 82.295 291.159 81.1419C291.136 79.9888 291.259 78.5134 291.513 77.0722C291.766 75.6311 292.152 74.2144 292.568 73.1393C292.983 72.0643 293.59 71.3648 293.471 71.4487C293.351 71.5322 294.202 71.2083 295.351 71.1847C296.5 71.161 297.96 71.2816 299.396 71.5358C300.833 71.7904 302.258 72.1695 303.33 72.5864V72.5868Z" fill="#E1E9FF"/>
<path d="M137.253 82.0004C130.127 82.0004 124.304 87.8418 124.304 94.9924C124.304 102.143 130.127 107.985 137.253 107.985C144.379 107.985 150.201 102.143 150.201 94.9924C150.201 87.8418 144.379 82 137.253 82V82.0004ZM137.253 86.1717C138.408 86.1675 139.553 86.3928 140.622 86.8346C141.69 87.2764 142.661 87.926 143.478 88.7459C144.295 89.5658 144.943 90.5399 145.383 91.6119C145.823 92.684 146.048 93.8329 146.044 94.9924C146.048 96.152 145.823 97.3009 145.383 98.373C144.943 99.445 144.295 100.419 143.478 101.239C142.661 102.059 141.69 102.709 140.622 103.15C139.553 103.592 138.408 103.817 137.253 103.813C136.097 103.817 134.952 103.592 133.884 103.15C132.815 102.708 131.844 102.059 131.027 101.239C130.21 100.419 129.563 99.4449 129.123 98.3729C128.682 97.3008 128.458 96.1519 128.462 94.9924C128.458 93.8329 128.682 92.6841 129.123 91.612C129.563 90.54 130.21 89.5659 131.027 88.746C131.844 87.9261 132.815 87.2765 133.884 86.8347C134.952 86.3929 136.097 86.1676 137.253 86.1717Z" fill="#C3EEFF"/>
<path d="M326.948 127C319.822 127 314 132.842 314 139.992C314 147.143 319.822 152.985 326.948 152.985C334.075 152.985 339.897 147.143 339.897 139.992C339.897 132.842 334.075 127 326.948 127V127ZM326.948 131.172C328.104 131.168 329.249 131.393 330.317 131.835C331.386 132.276 332.357 132.926 333.174 133.746C333.991 134.566 334.638 135.54 335.079 136.612C335.519 137.684 335.743 138.833 335.739 139.992C335.743 141.152 335.519 142.301 335.079 143.373C334.638 144.445 333.991 145.419 333.174 146.239C332.357 147.059 331.386 147.709 330.317 148.15C329.249 148.592 328.104 148.817 326.948 148.813C325.793 148.817 324.648 148.592 323.579 148.15C322.511 147.708 321.54 147.059 320.723 146.239C319.906 145.419 319.259 144.445 318.818 143.373C318.378 142.301 318.153 141.152 318.158 139.992C318.153 138.833 318.378 137.684 318.818 136.612C319.259 135.54 319.906 134.566 320.723 133.746C321.54 132.926 322.511 132.277 323.579 131.835C324.648 131.393 325.793 131.168 326.948 131.172Z" fill="#C3EEFF"/>
<path d="M138.494 128.809C133.927 128.809 130.179 132.563 130.179 137.145C130.179 141.727 133.927 145.488 138.494 145.488C143.061 145.488 146.809 141.727 146.809 137.145C146.809 132.563 143.061 128.809 138.494 128.809H138.494ZM138.494 132.973C140.814 132.973 142.652 134.816 142.652 137.145C142.652 139.473 140.814 141.316 138.494 141.316C136.174 141.316 134.336 139.473 134.336 137.145C134.336 134.816 136.174 132.973 138.494 132.973H138.494Z" fill="#F0EBFF"/>
<path d="M195.304 118C189.263 118 184.304 122.951 184.304 128.995C184.304 135.039 189.263 140 195.304 140C201.345 140 206.304 135.039 206.304 128.995C206.304 122.951 201.345 118 195.304 118H195.304ZM195.304 123.492C198.373 123.492 200.804 125.924 200.804 128.995C200.804 132.066 198.373 134.497 195.304 134.497C192.235 134.497 189.804 132.066 189.804 128.995C189.804 125.924 192.235 123.492 195.304 123.492H195.304Z" fill="#F0EBFF"/>
<path d="M136.778 223.345C135.555 222.331 134.86 222.679 134.103 222.747C133.345 222.815 132.526 222.976 131.608 223.202C129.771 223.655 127.565 224.371 125.391 225.187C123.217 226.003 121.085 226.913 119.402 227.78C118.56 228.214 117.838 228.623 117.222 229.071C116.605 229.518 115.855 229.724 115.591 231.296C115.327 232.867 115.964 233.309 116.4 233.933C116.837 234.558 117.39 235.187 118.043 235.872C119.351 237.243 121.063 238.797 122.851 240.279C124.64 241.762 126.498 243.157 128.086 244.186C128.88 244.701 129.597 245.122 130.29 245.434C130.984 245.746 131.533 246.304 133.02 245.746C134.507 245.188 134.565 244.399 134.885 243.706C135.206 243.014 135.472 242.225 135.737 241.313C136.266 239.489 136.76 237.218 137.146 234.92C137.532 232.622 137.806 230.317 137.9 228.421C137.948 227.472 137.958 226.631 137.881 225.871C137.804 225.112 138 224.359 136.777 223.345H136.778ZM133.746 227.029C133.754 227.4 133.778 227.701 133.75 228.21C133.668 229.853 133.407 232.062 133.042 234.235C132.677 236.408 132.213 238.568 131.754 240.147C131.612 240.635 131.496 240.917 131.367 241.264C131.043 241.086 130.765 240.952 130.339 240.677C128.964 239.785 127.19 238.463 125.499 237.062C123.808 235.66 122.173 234.168 121.041 232.981C120.693 232.617 120.522 232.373 120.288 232.088C120.603 231.896 120.85 231.721 121.299 231.489C122.757 230.738 124.785 229.862 126.841 229.09C128.898 228.319 131.003 227.64 132.594 227.247C133.085 227.126 133.382 227.091 133.745 227.029H133.746ZM236.876 192.518C235.821 192.797 234.721 193.234 233.659 193.753C232.597 194.272 231.585 194.867 230.716 195.528C229.847 196.189 229.052 196.779 228.604 198.084C228.156 199.388 228.42 200.342 228.698 201.4C228.976 202.458 229.41 203.555 229.927 204.62C230.445 205.686 231.04 206.709 231.699 207.58C232.357 208.452 232.939 209.253 234.239 209.702C235.539 210.152 236.497 209.884 237.551 209.605C238.605 209.326 239.699 208.891 240.76 208.371C241.822 207.853 242.842 207.256 243.71 206.595C244.579 205.934 245.374 205.343 245.822 204.039C246.271 202.734 245.999 201.783 245.721 200.725C245.443 199.667 245.016 198.567 244.499 197.502C243.982 196.437 243.38 195.416 242.721 194.545C242.062 193.673 241.481 192.873 240.181 192.423C238.88 191.973 237.93 192.238 236.876 192.517V192.518ZM237.934 196.557C238.631 196.373 239.188 196.487 238.828 196.363C238.468 196.238 238.973 196.49 239.408 197.065C239.844 197.641 240.34 198.47 240.757 199.329C241.174 200.188 241.521 201.093 241.705 201.792C241.889 202.491 241.764 203.046 241.889 202.684C242.013 202.323 241.772 202.834 241.198 203.271C240.625 203.708 239.799 204.206 238.942 204.625C238.086 205.043 237.184 205.391 236.487 205.575C235.791 205.76 235.238 205.635 235.598 205.76C235.958 205.885 235.446 205.636 235.011 205.06C234.576 204.484 234.08 203.656 233.662 202.796C233.245 201.937 232.901 201.039 232.717 200.34C232.533 199.642 232.654 199.079 232.53 199.441C232.406 199.803 232.654 199.288 233.228 198.852C233.802 198.415 234.627 197.917 235.484 197.498C236.341 197.079 237.238 196.742 237.934 196.557V196.557ZM299.722 207.189C298.706 206.793 297.566 206.5 296.404 206.294C295.24 206.088 294.066 205.97 292.976 205.993C291.885 206.016 290.898 206.016 289.772 206.808C288.645 207.599 288.298 208.535 287.904 209.554C287.509 210.575 287.218 211.718 287.012 212.885C286.807 214.052 286.69 215.23 286.712 216.324C286.736 217.418 286.744 218.411 287.532 219.541C288.321 220.672 289.247 221.01 290.264 221.406C291.281 221.802 292.418 222.102 293.581 222.308C294.744 222.514 295.921 222.624 297.011 222.602C298.101 222.578 299.088 222.578 300.215 221.786C301.342 220.995 301.686 220.067 302.08 219.047C302.475 218.027 302.769 216.876 302.974 215.709C303.179 214.543 303.295 213.372 303.272 212.278C303.249 211.184 303.241 210.191 302.452 209.061C301.663 207.93 300.739 207.584 299.722 207.189ZM298.215 211.074C298.887 211.335 299.269 211.764 299.05 211.451C298.832 211.137 299.101 211.641 299.116 212.364C299.131 213.087 299.047 214.049 298.881 214.991C298.715 215.933 298.461 216.859 298.2 217.533C297.94 218.207 297.522 218.585 297.834 218.366C298.147 218.147 297.645 218.417 296.924 218.431C296.205 218.447 295.245 218.362 294.306 218.196C293.368 218.03 292.435 217.779 291.763 217.518C291.092 217.257 290.717 216.83 290.936 217.143C291.155 217.457 290.883 216.96 290.868 216.238C290.853 215.515 290.937 214.552 291.103 213.611C291.268 212.669 291.517 211.733 291.778 211.059C292.039 210.385 292.464 210.009 292.151 210.228C291.839 210.447 292.341 210.177 293.061 210.163C293.782 210.147 294.741 210.232 295.679 210.398C296.618 210.564 297.544 210.813 298.215 211.074V211.074ZM59.3153 82C54.7484 82 51 85.7611 51 90.3435C51 94.9255 54.7484 98.687 59.3153 98.687C63.8819 98.687 67.6228 94.9255 67.6228 90.3435C67.6228 85.7611 63.8819 82 59.3153 82ZM59.3153 86.1717C61.6353 86.1717 63.473 88.0152 63.473 90.3435C63.473 92.6713 61.6353 94.5152 59.3153 94.5152C56.995 94.5152 55.1577 92.6713 55.1577 90.3435C55.1577 88.0152 56.995 86.1717 59.3153 86.1717Z" fill="#B9FFF5"/>
<path d="M369.89 194.941C368.61 194.135 368.086 194.561 367.523 194.686C366.961 194.81 366.404 194.997 365.783 195.238C364.541 195.721 363.099 196.409 361.68 197.162C360.261 197.916 358.878 198.728 357.781 199.486C357.233 199.865 356.76 200.222 356.341 200.618C355.922 201.014 355.281 201.205 355.225 202.722C355.168 204.238 355.796 204.484 356.185 204.91C356.574 205.337 357.019 205.728 357.537 206.147C358.575 206.985 359.889 207.901 361.248 208.757C362.607 209.614 363.996 210.405 365.199 210.98C365.8 211.266 366.341 211.494 366.893 211.661C367.444 211.827 367.935 212.29 369.272 211.58C370.608 210.871 370.502 210.207 370.675 209.655C370.849 209.104 370.964 208.519 371.066 207.858C371.271 206.537 371.396 204.942 371.456 203.332C371.516 201.722 371.51 200.118 371.404 198.786C371.351 198.12 371.277 197.525 371.145 196.963C371.013 196.4 371.172 195.748 369.89 194.941L369.89 194.941ZM367.257 199.143C367.342 200.221 367.363 201.701 367.308 203.175C367.253 204.651 367.123 206.131 366.958 207.2C365.986 206.735 364.701 206.005 363.457 205.221C362.211 204.435 360.997 203.592 360.157 202.914C361.045 202.301 362.317 201.54 363.621 200.848C364.921 200.158 366.253 199.535 367.257 199.143Z" fill="#B9FFF1"/>
<path d="M363.013 62.1984C361.997 61.8027 360.857 61.5103 359.694 61.3042C358.531 61.0981 357.357 60.9803 356.266 61.0027C355.176 61.0264 354.189 61.0264 353.063 61.8185C351.935 62.6098 351.589 63.5445 351.194 64.5648C350.8 65.5847 350.509 66.7283 350.303 67.8948C350.098 69.0621 349.98 70.2404 350.003 71.3344C350.026 72.4283 350.034 73.4206 350.823 74.5512C351.611 75.6819 352.538 76.02 353.555 76.416C354.571 76.8117 355.709 77.1116 356.872 77.3177C358.035 77.5238 359.211 77.6341 360.301 77.6116C361.392 77.588 362.379 77.588 363.505 76.7959C364.632 76.005 364.977 75.0773 365.371 74.057C365.766 73.0372 366.059 71.8864 366.265 70.7192C366.47 69.5527 366.585 68.3815 366.563 67.2875C366.54 66.1936 366.532 65.2013 365.743 64.0707C364.954 62.94 364.03 62.5944 363.013 62.1987L363.013 62.1984ZM361.506 66.084C362.178 66.3457 362.56 66.7744 362.341 66.4611C362.123 66.1478 362.392 66.6515 362.407 67.3738C362.422 68.0966 362.338 69.0593 362.172 70.0008C362.006 70.9426 361.752 71.8695 361.491 72.543C361.231 73.2169 360.813 73.5952 361.125 73.3757C361.437 73.1566 360.935 73.4265 360.215 73.4411C359.495 73.4569 358.536 73.3721 357.597 73.2058C356.659 73.0395 355.726 72.7893 355.054 72.528C354.383 72.2667 354.008 71.8399 354.226 72.1536C354.445 72.4665 354.174 71.9704 354.159 71.2476C354.143 70.5253 354.228 69.5621 354.393 68.6207C354.559 67.6792 354.808 66.7429 355.069 66.069C355.329 65.3951 355.755 65.0192 355.442 65.2387C355.13 65.4582 355.632 65.1875 356.352 65.1733C357.072 65.1575 358.032 65.2423 358.97 65.4086C359.909 65.5749 360.834 65.8223 361.506 66.084Z" fill="#B9FFEE"/>
<path d="M52.9482 171C45.8221 171 40 176.842 40 183.993C40 191.143 45.8218 196.985 52.9482 196.985C60.0747 196.985 65.8972 191.143 65.8972 183.992C65.8972 176.842 60.0747 171 52.9482 171V171ZM52.9482 175.172C54.1039 175.168 55.2489 175.393 56.3173 175.835C57.3858 176.277 58.3566 176.926 59.1737 177.746C59.9909 178.566 60.6383 179.54 61.0786 180.612C61.5189 181.684 61.7434 182.833 61.7392 183.993C61.7434 185.152 61.5189 186.301 61.0786 187.373C60.6383 188.445 59.9909 189.42 59.1737 190.239C58.3566 191.059 57.3858 191.709 56.3173 192.151C55.2489 192.592 54.1039 192.818 52.9482 192.814C51.7926 192.818 50.6476 192.592 49.5791 192.151C48.5106 191.709 47.5399 191.059 46.7227 190.239C45.9056 189.42 45.2582 188.445 44.8179 187.373C44.3776 186.301 44.1531 185.152 44.1573 183.993C44.1531 182.833 44.3776 181.684 44.8179 180.612C45.2582 179.54 45.9056 178.566 46.7227 177.746C47.5399 176.926 48.5106 176.277 49.5791 175.835C50.6476 175.393 51.7926 175.168 52.9482 175.172Z" fill="#B9FFF5"/>
<path d="M241.948 52.0004C234.822 52.0004 229 57.8422 229 64.9928C229 72.1434 234.822 77.9849 241.948 77.9849C249.075 77.9849 254.897 72.143 254.897 64.9921C254.897 57.8419 249.075 52 241.948 52V52.0004ZM241.948 56.1721C243.104 56.1679 244.249 56.3932 245.317 56.835C246.386 57.2768 247.357 57.9263 248.174 58.7463C248.991 59.5662 249.638 60.5402 250.079 61.6123C250.519 62.6844 250.743 63.8333 250.739 64.9928C250.743 66.1524 250.519 67.3013 250.079 68.3734C249.638 69.4454 248.991 70.4195 248.174 71.2394C247.357 72.0594 246.386 72.7089 245.317 73.1507C244.249 73.5925 243.104 73.8178 241.948 73.8135C240.793 73.8178 239.648 73.5925 238.579 73.1507C237.511 72.7089 236.54 72.0594 235.723 71.2394C234.906 70.4195 234.258 69.4454 233.818 68.3734C233.378 67.3013 233.153 66.1524 233.157 64.9928C233.153 63.8333 233.378 62.6844 233.818 61.6123C234.258 60.5402 234.906 59.5662 235.723 58.7463C236.54 57.9263 237.511 57.2768 238.579 56.835C239.648 56.3932 240.793 56.1679 241.948 56.1721Z" fill="#B9FFF5"/>
<path d="M331.316 257C326.749 257 323 260.761 323 265.343C323 269.925 326.749 273.687 331.315 273.687C335.882 273.687 339.631 269.925 339.631 265.343C339.631 260.761 335.882 257 331.315 257H331.316ZM331.316 261.172C333.636 261.172 335.473 263.015 335.473 265.343C335.473 267.671 333.636 269.515 331.315 269.515C328.995 269.515 327.158 267.671 327.158 265.343C327.158 263.015 328.995 261.172 331.315 261.172H331.316Z" fill="#F0EBFF"/>
<path d="M370.949 114C363.823 114 358 119.842 358 126.992C358 134.143 363.822 139.985 370.949 139.985C378.075 139.985 383.897 134.143 383.897 126.992C383.897 119.842 378.075 114 370.949 114ZM370.949 118.172C372.104 118.168 373.249 118.393 374.318 118.835C375.386 119.276 376.357 119.926 377.174 120.746C377.991 121.566 378.639 122.54 379.079 123.612C379.519 124.684 379.744 125.833 379.74 126.992C379.744 128.152 379.519 129.3 379.079 130.373C378.639 131.445 377.991 132.419 377.174 133.239C376.357 134.059 375.386 134.708 374.318 135.15C373.249 135.592 372.104 135.817 370.949 135.813C369.793 135.817 368.648 135.592 367.579 135.15C366.511 134.708 365.54 134.059 364.723 133.239C363.906 132.419 363.259 131.445 362.818 130.373C362.378 129.3 362.153 128.152 362.158 126.992C362.154 125.833 362.378 124.684 362.818 123.612C363.259 122.54 363.906 121.566 364.723 120.746C365.54 119.926 366.511 119.276 367.58 118.835C368.648 118.393 369.793 118.168 370.949 118.172Z" fill="#B9FFF5"/>
<path d="M355.308 10C350.741 10 347 13.7536 347 18.3356C347 22.918 350.741 26.6791 355.308 26.6791C359.874 26.6791 363.623 22.918 363.623 18.3356C363.623 13.7536 359.874 10 355.308 10ZM355.308 14.1639C357.628 14.1639 359.466 16.0078 359.466 18.3356C359.466 20.6638 357.628 22.5073 355.308 22.5073C352.988 22.5073 351.158 20.6638 351.158 18.3356C351.158 16.0078 352.988 14.1639 355.308 14.1639Z" fill="#F0EBFF"/>
<path d="M90.4903 19.0609C88.999 19.3091 88.8887 19.9771 88.5501 20.4453C88.2124 20.913 87.9182 21.423 87.6134 22.0173C87.0035 23.205 86.3794 24.6801 85.8154 26.1882C85.2518 27.6967 84.7546 29.2246 84.4353 30.5223C84.2758 31.171 84.1576 31.7518 84.1054 32.3276C84.0539 32.9033 83.7012 33.4724 84.6619 34.6448C85.6226 35.8172 86.2545 35.5827 86.8275 35.643C87.4005 35.7033 87.9916 35.6997 88.657 35.6666C89.9872 35.6036 91.5759 35.4128 93.1595 35.1492C94.7426 34.8856 96.3054 34.5534 97.5846 34.1825C98.2244 33.9969 98.7793 33.807 99.3025 33.5646C99.8248 33.3219 100.498 33.342 101.029 31.9213C101.56 30.5002 101.041 30.0746 100.807 29.5466C100.572 29.0185 100.271 28.5038 99.9113 27.9415C99.1906 26.8168 98.2295 25.5403 97.2099 24.2954C96.1899 23.0509 95.1248 21.8553 94.1645 20.9288C93.6846 20.4654 93.2361 20.0697 92.7651 19.7367C92.2942 19.4037 91.982 18.8106 90.4903 19.0593V19.0609ZM91.299 23.9573C92.0743 24.7076 93.0691 25.8012 94.0023 26.9401C94.9371 28.0814 95.8184 29.275 96.402 30.1846C95.3667 30.4833 93.9234 30.793 92.4737 31.0346C91.0217 31.2766 89.5556 31.4531 88.4794 31.5055C88.7383 30.4553 89.1876 29.039 89.7052 27.6538C90.2217 26.2725 90.8065 24.9189 91.299 23.9573Z" fill="#B9FFF1"/>
<path d="M202.013 45.1988C200.997 44.8027 199.857 44.5103 198.694 44.3042C197.531 44.0981 196.356 43.9803 195.266 44.0027C194.176 44.0264 193.189 44.0264 192.062 44.8185C190.935 45.6098 190.589 46.5445 190.194 47.5644C189.8 48.5847 189.509 49.7279 189.303 50.8948C189.098 52.0621 188.98 53.2404 189.003 54.3343C189.026 55.4283 189.034 56.4206 189.823 57.5512C190.611 58.6818 191.538 59.02 192.554 59.416C193.571 59.8117 194.708 60.1116 195.872 60.3177C197.034 60.5238 198.211 60.6341 199.301 60.6116C200.391 60.588 201.378 60.588 202.505 59.7959C203.632 59.0046 203.976 58.0773 204.371 57.057C204.765 56.0372 205.059 54.8864 205.264 53.7192C205.47 52.5527 205.585 51.3815 205.563 50.2875C205.539 49.1936 205.531 48.2013 204.743 47.0706C203.954 45.94 203.029 45.5944 202.013 45.1988ZM200.506 49.0844C201.178 49.3453 201.56 49.774 201.341 49.4607C201.122 49.1474 201.392 49.6511 201.406 50.3738C201.422 51.0966 201.337 52.0593 201.172 53.0008C201.006 53.9426 200.751 54.8691 200.491 55.543C200.231 56.2169 199.812 56.5952 200.125 56.3757C200.437 56.1562 199.935 56.4265 199.215 56.4411C198.495 56.4569 197.535 56.3721 196.597 56.2058C195.659 56.0395 194.725 55.7893 194.054 55.528C193.382 55.2667 193.008 54.8399 193.226 55.1532C193.445 55.4665 193.174 54.9704 193.159 54.2476C193.143 53.5249 193.228 52.5622 193.393 51.6207C193.559 50.6788 193.808 49.7425 194.069 49.069C194.329 48.3951 194.755 48.0192 194.442 48.2383C194.13 48.4574 194.632 48.1875 195.352 48.1729C196.072 48.1571 197.032 48.2419 197.97 48.4082C198.909 48.5745 199.834 48.8227 200.506 49.084L200.506 49.0844Z" fill="#B9FFEE"/>
<path d="M43.013 12.1988C41.9966 11.8027 40.8568 11.5103 39.6939 11.3042C38.5309 11.0981 37.3562 10.9803 36.2659 11.0027C35.176 11.0264 34.1891 11.0264 33.0622 11.8185C31.9351 12.6098 31.5887 13.5445 31.1943 14.5644C30.7996 15.5847 30.5086 16.7279 30.3028 17.8948C30.0978 19.0621 29.9803 20.2404 30.0027 21.3343C30.0263 22.4283 30.0341 23.4206 30.8228 24.5512C31.6114 25.6818 32.5379 26.02 33.5544 26.416C34.5708 26.8117 35.7082 27.1116 36.8716 27.3177C38.0345 27.5238 39.2112 27.6341 40.3011 27.6116C41.3913 27.588 42.3783 27.588 43.5051 26.7959C44.6319 26.0046 44.9764 25.0773 45.3707 24.057C45.7654 23.0372 46.0588 21.8864 46.2642 20.7192C46.4696 19.5527 46.5851 18.3815 46.5627 17.2875C46.5391 16.1936 46.5313 15.2013 45.7426 14.0706C44.954 12.94 44.0294 12.5944 43.013 12.1988ZM41.506 16.0844C42.1776 16.3453 42.5598 16.774 42.341 16.4607C42.1222 16.1474 42.3921 16.6511 42.4062 17.3738C42.4219 18.0966 42.3375 19.0593 42.1717 20.0008C42.006 20.9426 41.7515 21.8691 41.4911 22.543C41.2307 23.2169 40.8124 23.5952 41.125 23.3757C41.4373 23.1562 40.9353 23.4265 40.215 23.4411C39.4947 23.4569 38.5352 23.3721 37.597 23.2058C36.6587 23.0395 35.7255 22.7893 35.0539 22.528C34.3823 22.2667 34.0076 21.8399 34.2264 22.1532C34.4451 22.4665 34.1737 21.9704 34.1588 21.2476C34.1431 20.5249 34.2275 19.5622 34.3933 18.6207C34.559 17.6788 34.808 16.7425 35.0688 16.069C35.3288 15.3951 35.7546 15.0192 35.4419 15.2383C35.1297 15.4574 35.6316 15.1875 36.3519 15.1729C37.0722 15.1571 38.0317 15.2419 38.97 15.4082C39.9087 15.5745 40.8344 15.8227 41.5056 16.084L41.506 16.0844Z" fill="#B9FFEE"/>
<path d="M251.317 115.199C250.301 114.803 249.161 114.51 247.998 114.304C246.835 114.098 245.661 113.98 244.57 114.003C243.48 114.026 242.493 114.026 241.367 114.818C240.239 115.61 239.893 116.545 239.499 117.564C239.104 118.585 238.813 119.728 238.607 120.895C238.402 122.062 238.285 123.24 238.307 124.334C238.331 125.428 238.338 126.421 239.127 127.551C239.916 128.682 240.842 129.02 241.859 129.416C242.875 129.812 244.013 130.112 245.176 130.318C246.339 130.524 247.515 130.634 248.605 130.612C249.696 130.588 250.683 130.588 251.809 129.796C252.936 129.005 253.281 128.077 253.675 127.057C254.07 126.037 254.363 124.886 254.569 123.719C254.774 122.553 254.889 121.381 254.867 120.288C254.843 119.194 254.836 118.201 254.047 117.071C253.258 115.94 252.334 115.594 251.317 115.199ZM249.81 119.084C250.482 119.345 250.864 119.774 250.645 119.461C250.427 119.147 250.696 119.651 250.711 120.374C250.726 121.097 250.642 122.059 250.476 123.001C250.31 123.943 250.056 124.869 249.795 125.543C249.535 126.217 249.117 126.595 249.429 126.376C249.742 126.156 249.24 126.427 248.519 126.441C247.799 126.457 246.84 126.372 245.901 126.206C244.963 126.04 244.03 125.789 243.358 125.528C242.687 125.267 242.312 124.84 242.531 125.153C242.749 125.467 242.478 124.97 242.463 124.248C242.447 123.525 242.532 122.562 242.698 121.621C242.863 120.679 243.112 119.743 243.373 119.069C243.633 118.395 244.059 118.019 243.746 118.238C243.434 118.457 243.936 118.187 244.656 118.173C245.377 118.157 246.336 118.242 247.274 118.408C248.213 118.574 249.139 118.823 249.81 119.084L249.81 119.084Z" fill="#B9FFEE"/>
<path d="M165.249 11.7106C164.026 10.6966 163.331 11.0446 162.574 11.1123C161.816 11.1801 160.997 11.3413 160.079 11.5679C158.242 12.0207 156.037 12.7367 153.862 13.5529C151.688 14.3686 149.555 15.2778 147.872 16.1455C147.031 16.579 146.309 16.9881 145.693 17.4358C145.077 17.883 144.326 18.0891 144.062 19.6611C143.798 21.2331 144.435 21.6741 144.871 22.2987C145.307 22.9233 145.861 23.5519 146.514 24.2376C147.821 25.6078 149.534 27.1625 151.322 28.645C153.111 30.1271 154.969 31.5226 156.557 32.5515C157.351 33.0662 158.068 33.4875 158.762 33.7992C159.455 34.1113 160.003 34.6697 161.491 34.1113C162.978 33.5537 163.035 32.7643 163.356 32.0715C163.677 31.3791 163.943 30.5898 164.208 29.6779C164.738 27.8545 165.231 25.5838 165.617 23.2855C166.003 20.9872 166.276 18.6826 166.371 16.7859C166.419 15.8378 166.43 14.996 166.352 14.2362C166.275 13.4772 166.471 12.7241 165.248 11.7102L165.249 11.7106ZM162.217 15.3944C162.225 15.7649 162.249 16.0659 162.221 16.5751C162.139 18.2184 161.878 20.4272 161.513 22.6006C161.148 24.7739 160.684 26.9331 160.225 28.5126C160.083 29.0008 159.967 29.2822 159.838 29.6294C159.514 29.4517 159.236 29.3181 158.81 29.0414C157.434 28.1504 155.661 26.8291 153.97 25.4273C152.278 24.0256 150.644 22.534 149.511 21.3466C149.164 20.9821 148.993 20.7378 148.759 20.4536C149.073 20.2613 149.321 20.0864 149.769 19.8546C151.227 19.1031 153.256 18.2271 155.312 17.4555C157.368 16.6839 159.474 16.0049 161.065 15.6124C161.556 15.4914 161.852 15.4563 162.215 15.3944H162.217Z" fill="#B9FFF5"/>
<path d="M264.828 6.70669C263.411 6.15498 261.785 5.72386 260.124 5.42948C258.463 5.1351 256.785 4.97234 255.266 5.00387C253.747 5.0354 252.403 5.11185 251.083 6.03873C249.763 6.9656 249.242 8.20105 248.693 9.6225C248.143 11.0439 247.724 12.6786 247.431 14.3456C247.137 16.0121 246.972 17.7067 247.004 19.2306C247.035 20.7549 247.104 22.0896 248.027 23.4141C248.951 24.7382 250.179 25.2714 251.596 25.8228C253.013 26.3745 254.653 26.7981 256.314 27.0925C257.975 27.3869 259.652 27.5492 261.172 27.5181C262.691 27.4866 264.032 27.4208 265.352 26.4943C266.671 25.5674 267.195 24.3205 267.745 22.8995C268.294 21.478 268.714 19.843 269.007 18.1764C269.3 16.5095 269.462 14.8263 269.431 13.302C269.4 11.7777 269.334 10.4323 268.411 9.10783C267.487 7.78372 266.244 7.25841 264.828 6.70669ZM263.33 10.5868C264.402 11.0041 265.085 11.6205 265.001 11.5007C264.918 11.3809 265.252 12.2376 265.275 13.3907C265.299 14.5434 265.168 16.005 264.914 17.4462C264.66 18.8877 264.283 20.3182 263.867 21.3933C263.451 22.4683 262.848 23.1572 262.967 23.0733C263.087 22.9897 262.233 23.3247 261.084 23.3483C259.934 23.372 258.467 23.2372 257.03 22.9826C255.594 22.728 254.179 22.3521 253.108 21.9352C252.036 21.5174 251.35 20.9125 251.434 21.0319C251.517 21.1517 251.183 20.295 251.16 19.1423C251.136 17.9892 251.259 16.5138 251.513 15.0722C251.767 13.6311 252.152 12.2144 252.568 11.1393C252.983 10.0643 253.59 9.36477 253.471 9.44871C253.351 9.53225 254.202 9.20832 255.351 9.18467C256.5 9.16103 257.96 9.28201 259.397 9.53619C260.833 9.79077 262.258 10.1695 263.33 10.5868H263.33Z" fill="#E1E9FF"/>
<path d="M98.7118 110.064C97.4315 109.257 96.9075 109.683 96.3451 109.808C95.7827 109.933 95.2254 110.119 94.6044 110.361C93.3625 110.843 91.9204 111.531 90.5014 112.285C89.082 113.038 87.6995 113.85 86.6029 114.609C86.0542 114.988 85.5817 115.344 85.1627 115.74C84.7428 116.136 84.103 116.328 84.0465 117.844C83.9899 119.361 84.6179 119.606 85.0068 120.032C85.3956 120.459 85.8406 120.85 86.359 121.269C87.3963 122.107 88.7108 123.023 90.0701 123.879C91.429 124.736 92.8178 125.527 94.0204 126.102C94.6217 126.389 95.1625 126.616 95.7143 126.783C96.2658 126.949 96.7563 127.412 98.0928 126.702C99.4298 125.993 99.3229 125.329 99.4965 124.778C99.6701 124.226 99.7852 123.641 99.8877 122.981C100.092 121.66 100.218 120.064 100.277 118.454C100.337 116.844 100.331 115.24 100.225 113.908C100.172 113.242 100.098 112.647 99.9663 112.085C99.8343 111.522 99.9938 110.87 98.7122 110.063L98.7118 110.064ZM96.0792 114.265C96.1633 115.343 96.1849 116.824 96.1299 118.297C96.0749 119.774 95.9445 121.253 95.7799 122.322C94.8079 121.857 93.5228 121.127 92.2786 120.343C91.0324 119.557 89.8184 118.714 88.9783 118.036C89.8667 117.423 91.1392 116.662 92.4423 115.971C93.7423 115.281 95.0749 114.657 96.0792 114.265Z" fill="#E9E1FF"/>
<path d="M184.973 178.48C183.693 177.673 183.169 178.1 182.607 178.224C182.044 178.349 181.487 178.535 180.866 178.777C179.624 179.26 178.182 179.948 176.763 180.701C175.343 181.454 173.961 182.267 172.864 183.025C172.316 183.404 171.843 183.76 171.424 184.156C171.004 184.553 170.364 184.744 170.308 186.261C170.251 187.777 170.879 188.022 171.268 188.449C171.657 188.875 172.102 189.267 172.62 189.686C173.658 190.523 174.972 191.439 176.332 192.295C177.69 193.152 179.079 193.944 180.282 194.518C180.883 194.805 181.424 195.033 181.976 195.199C182.527 195.366 183.018 195.828 184.354 195.119C185.691 194.409 185.584 193.745 185.758 193.194C185.932 192.643 186.047 192.057 186.149 191.397C186.354 190.076 186.479 188.481 186.539 186.871C186.599 185.261 186.593 183.657 186.487 182.324C186.433 181.658 186.36 181.063 186.228 180.501C186.096 179.938 186.255 179.287 184.974 178.48L184.973 178.48ZM182.341 182.682C182.425 183.76 182.446 185.24 182.391 186.713C182.336 188.19 182.206 189.67 182.041 190.738C181.069 190.273 179.784 189.544 178.54 188.759C177.294 187.974 176.08 187.13 175.24 186.453C176.128 185.84 177.401 185.079 178.704 184.387C180.004 183.697 181.336 183.074 182.341 182.682Z" fill="#E9E1FF"/>
<path d="M222.828 287.707C221.411 287.155 219.785 286.724 218.124 286.429C216.463 286.135 214.785 285.972 213.266 286.004C211.747 286.035 210.403 286.112 209.083 287.039C207.763 287.966 207.242 289.201 206.693 290.622C206.143 292.044 205.724 293.679 205.431 295.346C205.137 297.012 204.972 298.707 205.004 300.231C205.035 301.755 205.104 303.09 206.027 304.414C206.951 305.738 208.179 306.271 209.596 306.823C211.013 307.374 212.653 307.798 214.314 308.092C215.975 308.387 217.652 308.549 219.172 308.518C220.691 308.487 222.032 308.421 223.352 307.494C224.671 306.567 225.195 305.321 225.745 303.899C226.294 302.478 226.714 300.843 227.007 299.176C227.3 297.509 227.462 295.826 227.431 294.302C227.4 292.778 227.334 291.432 226.411 290.108C225.487 288.784 224.244 288.258 222.828 287.707ZM221.33 291.587C222.402 292.004 223.085 292.62 223.001 292.501C222.918 292.381 223.252 293.238 223.275 294.391C223.299 295.543 223.168 297.005 222.914 298.446C222.66 299.888 222.283 301.318 221.867 302.393C221.451 303.468 220.848 304.157 220.967 304.073C221.087 303.99 220.233 304.325 219.084 304.348C217.934 304.372 216.467 304.237 215.03 303.983C213.594 303.728 212.179 303.352 211.108 302.935C210.036 302.517 209.35 301.913 209.434 302.032C209.517 302.152 209.183 301.295 209.16 300.142C209.136 298.989 209.259 297.514 209.513 296.072C209.767 294.631 210.152 293.214 210.568 292.139C210.983 291.064 211.59 290.365 211.471 290.449C211.351 290.532 212.202 290.208 213.351 290.185C214.5 290.161 215.96 290.282 217.397 290.536C218.833 290.791 220.258 291.169 221.33 291.587H221.33Z" fill="#E1E9FF"/>
</g>
<defs>
<clipPath id="clip0_1306_938">
<rect width="411" height="316" fill="white"/>
</clipPath>
</defs>
</svg>
