<svg width="200" height="200" viewBox="0 0 200 200" fill="none" xmlns="http://www.w3.org/2000/svg">
<g clip-path="url(#clip0_1306_937)">
<rect width="200" height="200" rx="56" fill="url(#paint0_linear_1306_937)"/>
</g>
<path d="M153.667 142.063H46.3333C45.7145 142.063 45.121 142.309 44.6834 142.747C44.2458 143.185 44 143.779 44 144.398V153.737C44 154.356 44.2458 154.95 44.6834 155.388C45.121 155.826 45.7145 156.072 46.3333 156.072H153.667C154.286 156.072 154.879 155.826 155.317 155.388C155.754 154.95 156 154.356 156 153.737V144.398C156 143.779 155.754 143.185 155.317 142.747C154.879 142.309 154.286 142.063 153.667 142.063ZM151.333 151.402H48.6667V146.733H151.333V151.402Z" fill="#00C8FF"/>
<path d="M46.3333 128.054H67.7767C73.1398 128.047 78.4384 129.224 83.2951 131.501C88.1517 133.777 92.4469 137.097 95.8747 141.225L99.4587 138.232C95.593 133.579 90.7497 129.836 85.2737 127.27C79.7976 124.703 73.8235 123.377 67.7767 123.384H46.3333V128.054Z" fill="#00C8FF"/>
<path d="M100.541 138.232L104.125 141.225C107.553 137.097 111.848 133.777 116.705 131.501C121.562 129.224 126.86 128.047 132.223 128.054H153.667V123.384H132.223C126.177 123.377 120.202 124.703 114.726 127.27C109.25 129.836 104.407 133.579 100.541 138.232Z" fill="#00C8FF"/>
<path d="M96.017 127.37L99.3163 124.069C96.1484 120.88 92.3798 118.353 88.2287 116.632C84.0777 114.911 79.6267 114.032 75.1337 114.045H51V118.715H75.1337C79.0137 118.704 82.8574 119.463 86.4421 120.948C90.0268 122.434 93.2812 124.617 96.017 127.37Z" fill="#00C8FF"/>
<path d="M100.684 124.069L103.983 127.37C106.719 124.617 109.973 122.434 113.558 120.948C117.143 119.463 120.986 118.704 124.866 118.715H149V114.045H124.866C120.373 114.032 115.922 114.911 111.771 116.632C107.62 118.353 103.852 120.88 100.684 124.069Z" fill="#00C8FF"/>
<path d="M74.3333 132.724H44V137.393H74.3333V132.724Z" fill="#00C8FF"/>
<path d="M156 132.724H125.667V137.393H156V132.724Z" fill="#00C8FF"/>
<path d="M100 44C92.5723 44.1393 85.4433 46.9508 79.9179 51.9198C74.3925 56.8889 70.8404 63.683 69.9119 71.0585C68.9834 78.4339 70.7406 85.8973 74.8619 92.0823C78.9831 98.2673 85.1926 102.76 92.3537 104.738L97.8627 117.314C98.0446 117.729 98.3437 118.083 98.7232 118.331C99.1028 118.58 99.5465 118.712 100 118.712C100.454 118.712 100.897 118.58 101.277 118.331C101.656 118.083 101.955 117.729 102.137 117.314L107.646 104.736C114.806 102.756 121.013 98.2631 125.133 92.0786C129.252 85.8942 131.009 78.4322 130.08 71.0582C129.152 63.6841 125.601 56.8911 120.077 51.9223C114.553 46.9535 107.426 44.1412 100 44ZM105.467 100.463C105.108 100.543 104.774 100.706 104.49 100.939C104.206 101.172 103.981 101.469 103.834 101.806L100 110.564L96.164 101.806C96.0166 101.469 95.7918 101.172 95.508 100.939C95.2242 100.706 94.8893 100.543 94.5307 100.463C88.3202 98.9924 82.8585 95.3067 79.1682 90.0964C75.4779 84.8861 73.8121 78.5084 74.4828 72.1576C75.1534 65.8068 78.1145 59.9183 82.8115 55.5948C87.5085 51.2713 93.6195 48.8093 100 48.6697C106.38 48.8098 112.491 51.2722 117.188 55.5959C121.884 59.9196 124.845 65.808 125.515 72.1587C126.186 78.5094 124.52 84.8868 120.829 90.0969C117.139 95.307 111.677 98.9925 105.467 100.463Z" fill="#00C8FF"/>
<path d="M117.253 69.8724L100.919 62.8679C100.629 62.7442 100.316 62.6804 100 62.6804C99.6841 62.6804 99.3714 62.7442 99.0807 62.8679L82.7474 69.8724C82.3278 70.0525 81.9703 70.3517 81.7191 70.7331C81.4679 71.1145 81.334 71.5613 81.334 72.0181C81.334 72.4749 81.4679 72.9216 81.7191 73.303C81.9703 73.6844 82.3278 73.9837 82.7474 74.1638L86 75.5647V83.6922C86.0001 84.0951 86.1044 84.4911 86.3027 84.8418C86.501 85.1924 86.7866 85.4857 87.1317 85.6932C91.0405 87.9643 95.4801 89.1605 100 89.1605C104.52 89.1605 108.96 87.9643 112.868 85.6932C113.213 85.4857 113.499 85.1924 113.697 84.8418C113.896 84.4911 114 84.0951 114 83.6922V75.5577L117.253 74.1568C117.672 73.9767 118.03 73.6774 118.281 73.296C118.532 72.9146 118.666 72.4679 118.666 72.0111C118.666 71.5543 118.532 71.1075 118.281 70.7261C118.03 70.3447 117.672 70.0454 117.253 69.8654V69.8724ZM100 67.5539L110.409 72.0181L100 76.4823L89.591 72.0181L100 67.5539ZM109.333 82.3147C106.425 83.7287 103.234 84.4634 100 84.4634C96.7665 84.4634 93.5751 83.7287 90.6667 82.3147V77.561L99.0807 81.1683C99.3712 81.2929 99.684 81.3571 100 81.3571C100.316 81.3571 100.629 81.2929 100.919 81.1683L109.333 77.561V82.3147Z" fill="#00C8FF"/>
<defs>
<linearGradient id="paint0_linear_1306_937" x1="97.224" y1="200" x2="99.9981" y2="-7.13052e-07" gradientUnits="userSpaceOnUse">
<stop stop-color="#AAEEFF"/>
<stop offset="1" stop-color="#D5D5FF"/>
</linearGradient>
<clipPath id="clip0_1306_937">
<rect width="200" height="200" fill="white"/>
</clipPath>
</defs>
</svg>
