<svg width="20" height="26" viewBox="0 0 20 26" fill="none" xmlns="http://www.w3.org/2000/svg">
<path d="M10 10C12.7614 10 15 7.76142 15 5C15 2.23858 12.7614 0 10 0C7.23858 0 5 2.23858 5 5C5 7.76142 7.23858 10 10 10Z" fill="#F5F6FF"/>
<path d="M10 11C7.34784 11 4.8043 12.0536 2.92893 13.9289C1.05357 15.8043 0 18.3478 0 21V25C0 25.2652 0.105357 25.5196 0.292893 25.7071C0.48043 25.8946 0.734784 26 1 26H19C19.2652 26 19.5196 25.8946 19.7071 25.7071C19.8946 25.5196 20 25.2652 20 25V21C20 18.3478 18.9464 15.8043 17.0711 13.9289C15.1957 12.0536 12.6522 11 10 11Z" fill="#F5F6FF"/>
</svg>
