<svg width="112" height="113" viewBox="0 0 112 113" fill="none" xmlns="http://www.w3.org/2000/svg">
<path d="M109.667 98.063H2.3333C1.7145 98.063 1.121 98.309 0.683399 98.747C0.245799 99.185 0 99.779 0 100.398V109.737C0 110.356 0.245799 110.95 0.683399 111.388C1.121 111.826 1.7145 112.072 2.3333 112.072H109.667C110.286 112.072 110.879 111.826 111.317 111.388C111.754 110.95 112 110.356 112 109.737V100.398C112 99.779 111.754 99.185 111.317 98.747C110.879 98.309 110.286 98.063 109.667 98.063ZM107.333 107.402H4.6667V102.733H107.333V107.402Z" fill="#F5F6FF"/>
<path d="M2.33331 84.054H23.7767C29.1398 84.047 34.4384 85.224 39.2951 87.501C44.1517 89.777 48.4469 93.097 51.8747 97.225L55.4587 94.232C51.593 89.579 46.7497 85.836 41.2737 83.27C35.7976 80.703 29.8235 79.377 23.7767 79.384H2.33331V84.054Z" fill="#F5F6FF"/>
<path d="M56.541 94.232L60.125 97.225C63.553 93.097 67.848 89.777 72.705 87.501C77.562 85.224 82.86 84.047 88.223 84.054H109.667V79.384H88.223C82.177 79.377 76.202 80.703 70.726 83.27C65.25 85.836 60.407 89.579 56.541 94.232Z" fill="#F5F6FF"/>
<path d="M52.017 83.37L55.3163 80.069C52.1484 76.88 48.3798 74.353 44.2287 72.632C40.0777 70.911 35.6267 70.032 31.1337 70.045H7V74.715H31.1337C35.0137 74.704 38.8574 75.463 42.4421 76.948C46.0268 78.434 49.2812 80.617 52.017 83.37Z" fill="#F5F6FF"/>
<path d="M56.684 80.069L59.983 83.37C62.719 80.617 65.973 78.434 69.558 76.948C73.143 75.463 76.986 74.704 80.866 74.715H105V70.045H80.866C76.373 70.032 71.922 70.911 67.771 72.632C63.62 74.353 59.852 76.88 56.684 80.069Z" fill="#F5F6FF"/>
<path d="M30.3333 88.724H0V93.393H30.3333V88.724Z" fill="#F5F6FF"/>
<path d="M112 88.724H81.667V93.393H112V88.724Z" fill="#F5F6FF"/>
<path d="M56 0C48.5723 0.1393 41.4433 2.9508 35.9179 7.9198C30.3925 12.8889 26.8404 19.683 25.9119 27.0585C24.9834 34.4339 26.7406 41.8973 30.8619 48.0823C34.9831 54.2673 41.1926 58.76 48.3537 60.738L53.8627 73.314C54.0446 73.729 54.3437 74.083 54.7232 74.331C55.1028 74.58 55.5465 74.712 56 74.712C56.454 74.712 56.897 74.58 57.277 74.331C57.656 74.083 57.955 73.729 58.137 73.314L63.646 60.736C70.806 58.756 77.013 54.2631 81.133 48.0786C85.252 41.8942 87.009 34.4322 86.08 27.0582C85.152 19.6841 81.601 12.8911 76.077 7.9223C70.553 2.9535 63.426 0.1412 56 0ZM61.467 56.463C61.108 56.543 60.774 56.706 60.49 56.939C60.206 57.172 59.981 57.469 59.834 57.806L56 66.564L52.164 57.806C52.0166 57.469 51.7918 57.172 51.508 56.939C51.2242 56.706 50.8893 56.543 50.5307 56.463C44.3202 54.9924 38.8585 51.3067 35.1682 46.0964C31.4779 40.8861 29.8121 34.5084 30.4828 28.1576C31.1534 21.8068 34.1145 15.9183 38.8115 11.5948C43.5085 7.2713 49.6195 4.8093 56 4.6697C62.38 4.8098 68.491 7.2722 73.188 11.5959C77.884 15.9196 80.845 21.808 81.515 28.1587C82.186 34.5094 80.52 40.8868 76.829 46.0969C73.139 51.307 67.677 54.9925 61.467 56.463Z" fill="#F5F6FF"/>
<path d="M73.253 25.8724L56.919 18.8679C56.629 18.7442 56.316 18.6804 56 18.6804C55.6841 18.6804 55.3714 18.7442 55.0807 18.8679L38.7474 25.8724C38.3278 26.0525 37.9703 26.3517 37.7191 26.7331C37.4679 27.1145 37.334 27.5613 37.334 28.0181C37.334 28.4749 37.4679 28.9216 37.7191 29.303C37.9703 29.6844 38.3278 29.9837 38.7474 30.1638L42 31.5647V39.6922C42.0001 40.0951 42.1044 40.4911 42.3027 40.8418C42.501 41.1924 42.7866 41.4857 43.1317 41.6932C47.0405 43.9643 51.4801 45.1605 56 45.1605C60.52 45.1605 64.96 43.9643 68.868 41.6932C69.213 41.4857 69.499 41.1924 69.697 40.8418C69.896 40.4911 70 40.0951 70 39.6922V31.5577L73.253 30.1568C73.672 29.9767 74.03 29.6774 74.281 29.296C74.532 28.9146 74.666 28.4679 74.666 28.0111C74.666 27.5543 74.532 27.1075 74.281 26.7261C74.03 26.3447 73.672 26.0454 73.253 25.8654V25.8724ZM56 23.5539L66.409 28.0181L56 32.4823L45.591 28.0181L56 23.5539ZM65.333 38.3147C62.425 39.7287 59.234 40.4634 56 40.4634C52.7665 40.4634 49.5751 39.7287 46.6667 38.3147V33.561L55.0807 37.1683C55.3712 37.2929 55.684 37.3571 56 37.3571C56.316 37.3571 56.629 37.2929 56.919 37.1683L65.333 33.561V38.3147Z" fill="#F5F6FF"/>
</svg>
